<?xml version="1.0" encoding="utf-8"?>
<!-- Generator: Adobe Illustrator 22.1.0, SVG Export Plug-In . SVG Version: 6.00 Build 0)  -->
<svg version="1.1" id="Capa_1" xmlns="http://www.w3.org/2000/svg" xmlns:xlink="http://www.w3.org/1999/xlink" x="0px" y="0px"
	 viewBox="0 0 280.9 280.9" style="enable-background:new 0 0 280.9 280.9;" xml:space="preserve">
<style type="text/css">
	.st0{fill:none;stroke:#66728B;stroke-width:27;stroke-miterlimit:10;}
	.st1{fill:#7D8BA0;}
	.st2{fill:#42516D;}
</style>
<g>
	<path class="st0" d="M255.5,159.4c0-62.8-50.9-113.8-113.8-113.8S27.9,96.6,27.9,159.4"/>
	<path class="st1" d="M265,153.2h-10.6c-3,0-5.3,2.6-5.3,5.9V218c0,3.3,2.3,5.9,5.3,5.9H265c8.8,0,15.9-7.9,15.9-17.7v-35.3
		C280.9,161.1,273.8,153.2,265,153.2z"/>
	<path class="st2" d="M252,153.3c-1.9-5.6-6.3-9.2-11.7-10.7c-10.8-3.2-24.6,2.4-24.6,16.6v58.8c0,21,30.6,23,36.3,5.9
		c0.6-1.8,1-3.6,1-5.9v-58.8C253,156.9,252.6,155,252,153.3z"/>
	<path class="st1" d="M0,170.8l0,35.3c0,9.8,7.1,17.7,15.9,17.7h10.6c3,0,5.3-2.6,5.3-5.9v-58.9c0-3.3-2.3-5.9-5.3-5.9H15.9
		C7.1,153.2,0,161.1,0,170.8z"/>
	<path class="st2" d="M27.9,159.1v58.8c0,2.2,0.4,4.1,1,5.9c5.7,17.2,36.3,15.2,36.3-5.9v-58.8c0-14.2-13.8-19.7-24.6-16.6
		c-5.4,1.5-9.8,5.1-11.7,10.7C28.3,155,27.9,156.9,27.9,159.1z"/>
</g>
<circle class="st2" cx="739.9" cy="86" r="75"/>
</svg>
