<svg width="48" height="48" viewBox="0 0 48 48" fill="none" xmlns="http://www.w3.org/2000/svg">
<path fill-rule="evenodd" clip-rule="evenodd" d="M36 31.5V21.5C36 15.36 32.74 10.22 27 8.86V7.5C27 5.84 25.66 4.5 24 4.5C22.34 4.5 21 5.84 21 7.5V8.86C15.28 10.22 12 15.34 12 21.5V31.5L8 35.5V37.5H40V35.5L36 31.5ZM24 43.5C26.2 43.5 28 41.7 28 39.5H20C20 41.7 21.8 43.5 24 43.5ZM16 33.5H32V21.5C32 16.54 28.98 12.5 24 12.5C19.02 12.5 16 16.54 16 21.5V33.5ZM15.16 7.65999L12.3 4.79999C7.50003 8.45999 4.34003 14.1 4.06003 20.5H8.06003C8.36003 15.2 11.08 10.56 15.16 7.65999ZM43.9401 20.5H39.9401C39.6401 15.2 36.9001 10.56 32.8601 7.65999L35.7001 4.79999C40.4801 8.45999 43.6401 14.1 43.9401 20.5Z" fill="#191919" fill-opacity="1"/>
</svg>
