<svg width="48" height="48" viewBox="0 0 48 48" fill="none" xmlns="http://www.w3.org/2000/svg">
<g id="icon/places/beach_access_24px">
<path id="icon/places/beach_access_24px_2" fill-rule="evenodd" clip-rule="evenodd" d="M26.2313 6.00241C21.0713 6.00241 15.9113 7.96241 11.9513 11.9024L11.9313 11.9224C4.03129 19.8224 4.03129 32.6424 11.9313 40.5424L40.5313 11.9224C36.5913 7.98241 31.4113 6.00241 26.2313 6.00241ZM41.9937 39.1408L39.1371 41.9976L26.2537 29.1142L29.1103 26.2576L41.9937 39.1408ZM9.99128 26.2424C9.99128 29.2224 10.7913 32.0624 12.2713 34.5424L15.0513 31.7824C12.6913 28.4824 11.2913 24.7224 10.9113 20.9024C10.3113 22.6024 9.99128 24.3824 9.99128 26.2424ZM17.9513 28.8624C15.2513 24.7624 14.2313 19.8624 15.1913 15.2024C16.3513 14.9624 17.5113 14.8424 18.6913 14.8424C22.2913 14.8424 25.7913 15.9424 28.8513 17.9624L17.9513 28.8624ZM26.2313 10.0024C24.3713 10.0024 22.5913 10.3224 20.8913 10.9224C24.7113 11.3024 28.4513 12.7024 31.7513 15.0624L34.5313 12.2824C32.0513 10.8024 29.2113 10.0024 26.2313 10.0024Z" fill="#191919" fill-opacity="1"/>
</g>
</svg>
